<svg id="svg" xmlns="http://www.w3.org/2000/svg" xmlns:xlink="http://www.w3.org/1999/xlink" width="400" height="399.4261119081779" viewBox="0, 0, 400,399.4261119081779"><g id="svgg"><path id="path0" d="M320.373 74.665 C 279.261 115.736,245.624 149.412,245.624 149.501 C 245.624 149.590,253.565 149.789,263.271 149.942 C 282.057 150.239,286.026 150.725,294.978 153.820 C 336.734 168.258,342.911 218.418,305.547 239.634 C 298.319 243.738,298.261 245.225,305.188 248.819 C 323.058 258.089,332.917 276.787,331.081 297.925 C 329.016 321.705,314.677 337.949,290.499 343.904 C 284.550 345.369,167.775 346.263,166.080 344.857 C 165.405 344.296,165.280 335.245,165.280 287.113 C 165.280 251.513,165.076 230.105,164.737 230.225 C 164.439 230.330,127.251 267.175,82.097 312.103 C 1.847 391.953,0.000 393.840,0.000 395.964 C 0.000 397.160,0.350 398.428,0.777 398.783 C 1.350 399.258,53.940 399.390,200.634 399.283 L 399.713 399.139 399.713 199.713 L 399.713 0.287 397.418 0.138 L 395.122 -0.010 320.373 74.665 M208.123 186.989 C 206.697 188.566,206.679 225.535,208.104 226.960 C 209.819 228.675,267.163 228.000,271.594 226.212 C 291.115 218.337,288.306 191.175,267.514 186.768 C 261.000 185.387,209.399 185.579,208.123 186.989 M208.123 265.038 C 206.718 266.590,206.674 307.022,208.075 308.424 C 209.400 309.749,265.786 309.764,271.399 308.441 C 295.171 302.838,294.116 269.965,270.000 264.856 C 263.299 263.437,209.429 263.595,208.123 265.038 " stroke="none" fill="#000000" fill-rule="evenodd"></path></g></svg>